<svg xmlns="http://www.w3.org/2000/svg" width="183" height="149" viewBox="0 0 183 149">
<g>
<path d="M 85.61 91.75 C83.89,95.11 82.60,95.78 81.45,93.92 C81.06,93.29 78.62,92.98 75.69,93.17 L 70.60 93.50 L 69.89 90.00 C65.01,66.00 64.84,64.53 65.35,49.60 C65.83,35.26 65.95,34.60 69.17,28.29 C72.25,22.27 77.10,17.20 81.20,15.72 C82.45,15.26 82.74,15.51 82.30,16.67 C81.79,17.99 82.03,18.05 83.85,17.08 C85.03,16.45 86.00,15.32 86.00,14.57 C86.00,13.29 88.05,12.00 90.08,12.00 C90.59,12.00 91.00,12.68 91.00,13.50 C91.00,14.39 91.91,14.99 93.25,14.98 C95.07,14.97 95.21,14.78 94.00,14.00 C93.18,13.47 92.98,13.02 93.57,13.02 C94.16,13.01 96.52,14.61 98.82,16.58 C102.93,20.09 104.21,22.94 101.75,23.06 C101.06,23.10 101.44,23.51 102.59,23.97 C105.62,25.20 108.47,31.70 108.33,37.07 C108.26,39.65 106.81,45.10 105.01,49.57 C103.24,53.93 100.27,61.76 98.39,66.96 C96.51,72.16 94.53,76.87 93.99,77.41 C93.45,77.95 92.99,80.00 92.98,81.95 C92.97,84.29 92.68,85.04 92.12,84.16 C91.19,82.70 88.81,85.47 85.61,91.75 ZM 80.16 65.00 C87.12,66.65 88.87,66.20 93.91,61.48 C99.08,56.65 102.36,49.95 101.82,45.28 C101.54,42.88 100.96,42.42 97.50,41.91 C91.14,40.98 89.02,39.93 88.38,37.38 C87.19,32.65 88.46,31.67 95.02,32.27 C98.31,32.57 101.00,32.49 101.00,32.10 C101.00,28.59 93.80,25.72 88.56,27.13 C86.70,27.64 85.12,27.51 84.25,26.79 C81.33,24.37 74.00,25.34 74.00,28.15 C74.00,28.85 75.49,29.00 78.30,28.58 C82.01,28.03 82.90,28.27 84.87,30.36 L 87.15 32.79 L 83.63 37.39 C81.70,39.93 79.84,41.55 79.50,41.00 C79.16,40.45 76.67,40.00 73.96,40.00 C69.68,40.00 68.97,40.30 68.49,42.25 C68.19,43.49 68.91,46.97 70.08,50.00 C71.25,53.03 72.76,56.98 73.44,58.78 C75.03,63.05 76.11,64.05 80.16,65.00 ZM 183.00 149.00 L 0.00 149.00 L 42.75 148.80 C66.26,148.68 81.87,148.44 77.44,148.26 C69.79,147.94 69.30,147.78 67.69,145.06 C65.69,141.66 65.47,139.55 67.25,140.66 C68.74,141.59 73.07,141.16 74.57,139.93 C75.15,139.45 78.30,138.75 81.57,138.36 C84.83,137.98 88.85,136.84 90.50,135.84 C95.27,132.93 96.29,133.47 94.00,137.74 C92.90,139.79 92.00,142.91 92.00,144.67 C92.00,147.53 91.66,147.92 88.75,148.28 C86.96,148.50 107.44,148.75 134.25,148.84 L 183.00 149.00 ZM 69.89 129.10 C66.18,132.57 63.35,133.09 65.00,130.00 C65.76,128.58 65.76,127.42 64.99,125.98 C64.39,124.87 64.13,123.60 64.40,123.16 C64.67,122.73 63.57,120.37 61.95,117.93 C59.05,113.57 57.99,108.00 60.06,108.00 C61.20,108.00 67.00,113.98 67.00,115.16 C67.00,115.55 68.35,117.35 70.00,119.16 C73.80,123.32 73.78,125.47 69.89,129.10 ZM 52.50 138.00 C51.42,139.75 48.17,139.08 46.56,136.78 C44.61,133.99 44.57,132.90 46.46,133.62 C47.67,134.09 47.83,133.20 47.39,128.38 C47.09,125.19 46.31,121.21 45.64,119.54 C44.95,117.80 44.71,115.01 45.08,113.00 C45.44,111.07 45.80,110.20 45.87,111.05 C45.94,111.90 46.52,113.12 47.16,113.76 C47.80,114.40 48.45,116.18 48.60,117.71 C49.15,123.03 51.50,134.51 52.31,135.75 C52.75,136.44 52.84,137.45 52.50,138.00 ZM 65.62 77.06 C66.46,79.03 66.99,82.61 66.82,85.06 L 66.50 89.50 L 64.82 86.00 C62.27,80.69 60.22,54.83 62.11,51.85 C62.58,51.11 63.00,50.72 63.03,51.00 C63.06,51.28 63.31,56.45 63.59,62.50 C63.89,69.00 64.72,74.96 65.62,77.06 ZM 29.08 144.38 C28.21,145.14 26.38,146.09 25.00,146.48 L 22.50 147.21 L 25.00 144.65 C27.93,141.66 35.47,139.40 39.31,140.36 C43.93,141.52 42.26,143.00 36.33,143.00 C32.93,143.00 30.02,143.55 29.08,144.38 ZM 119.31 141.51 C119.94,145.38 119.35,145.75 116.75,143.11 C114.83,141.16 114.43,139.00 116.00,139.00 C116.55,139.00 117.00,137.73 117.00,136.17 C117.00,132.50 117.98,131.59 119.57,133.76 C120.46,134.98 120.53,135.87 119.79,136.76 C119.21,137.45 119.00,139.59 119.31,141.51 ZM 113.00 131.11 C113.00,133.80 112.85,136.00 112.67,136.00 C111.75,136.00 111.00,134.45 111.00,132.56 C111.00,131.39 110.32,129.47 109.49,128.29 C107.86,125.96 108.83,124.61 111.41,125.60 C112.56,126.05 113.00,127.56 113.00,131.11 ZM 84.42 49.13 C83.52,50.59 79.98,50.10 79.34,48.43 C78.29,45.71 80.68,44.40 82.95,46.46 C84.05,47.45 84.71,48.66 84.42,49.13 ZM 139.50 147.00 C139.16,147.55 138.57,147.93 138.19,147.84 C137.81,147.76 135.25,147.40 132.50,147.04 C129.51,146.66 128.10,146.12 129.00,145.71 C129.82,145.34 131.85,145.22 133.50,145.45 C135.15,145.68 137.31,145.89 138.31,145.93 C139.30,145.97 139.84,146.45 139.50,147.00 ZM 30.13 120.45 C31.78,125.07 31.47,126.52 29.14,125.08 C28.35,124.60 27.99,122.71 28.19,120.08 L 28.50 115.86 ZM 67.00 146.00 C67.96,147.80 67.76,148.00 65.00,148.00 C62.24,148.00 62.04,147.80 63.00,146.00 C63.59,144.90 64.49,144.00 65.00,144.00 C65.51,144.00 66.41,144.90 67.00,146.00 ZM 82.36 51.77 C82.62,52.19 81.07,52.58 78.92,52.64 C76.76,52.70 75.00,52.35 75.00,51.87 C75.00,50.80 81.70,50.70 82.36,51.77 ZM 63.00 93.44 C63.00,94.23 62.55,95.16 62.00,95.50 C61.45,95.84 61.00,95.19 61.00,94.06 C61.00,92.93 61.45,92.00 62.00,92.00 C62.55,92.00 63.00,92.65 63.00,93.44 Z" fill="rgb(18,13,52)"/>
<path d="M 52.50 138.00 C52.84,137.45 52.75,136.44 52.31,135.75 C51.50,134.51 49.15,123.03 48.60,117.71 C48.45,116.18 47.80,114.40 47.16,113.76 C46.52,113.12 45.94,111.90 45.87,111.05 C45.80,110.20 45.44,111.07 45.08,113.00 C44.71,115.01 44.95,117.80 45.64,119.54 C46.31,121.21 47.09,125.19 47.39,128.38 C47.83,133.20 47.67,134.09 46.46,133.62 C44.57,132.90 44.61,133.99 46.56,136.78 C46.89,137.25 47.29,137.66 47.73,137.99 C45.89,136.88 43.87,134.96 41.28,132.09 C37.85,128.31 34.13,123.63 32.99,121.71 C30.77,117.95 29.56,113.61 30.97,114.48 C31.44,114.77 32.02,114.45 32.25,113.76 C32.52,112.93 33.94,113.62 36.37,115.75 C39.86,118.82 41.00,119.52 41.00,118.61 C41.00,117.90 35.22,112.00 34.53,112.00 C34.16,112.00 33.18,111.32 32.36,110.50 C31.53,109.68 29.88,109.05 28.68,109.12 C27.28,109.19 27.06,109.38 28.07,109.65 C29.14,109.94 29.52,110.94 29.26,112.79 C29.06,114.28 30.00,118.20 31.37,121.50 C34.04,127.96 33.71,129.34 29.64,128.83 L 27.03 128.50 L 26.54 115.25 C26.27,107.96 26.29,102.00 26.58,102.00 C26.87,102.00 28.74,103.11 30.75,104.47 C32.75,105.83 34.60,106.73 34.86,106.47 C35.12,106.21 33.89,104.20 32.12,102.00 C28.98,98.09 29.17,97.30 33.17,97.86 C33.54,97.91 33.43,96.50 32.92,94.73 C31.47,89.65 32.00,88.15 33.85,92.10 C35.46,95.55 41.36,103.00 42.47,103.00 C43.28,103.00 43.10,98.43 42.25,97.58 C41.84,97.17 41.48,96.53 41.46,96.17 C41.43,95.80 40.42,93.31 39.21,90.62 C36.69,85.07 36.68,85.00 37.90,85.00 C40.54,85.00 45.28,96.95 46.57,106.82 C46.81,108.65 47.47,111.01 48.04,112.07 C49.46,114.72 53.60,114.54 55.42,111.75 C57.22,108.99 57.18,103.01 55.35,102.30 C54.61,102.02 54.26,101.38 54.57,100.89 C54.88,100.39 54.38,99.70 53.46,99.35 C50.57,98.24 44.04,90.59 45.31,89.81 C45.95,89.41 47.38,89.92 48.48,90.93 C49.59,91.94 51.40,93.07 52.50,93.43 C53.60,93.79 56.53,96.59 59.00,99.64 C61.47,102.70 66.09,107.80 69.25,110.97 C72.41,114.14 75.00,117.45 75.00,118.31 C75.00,119.18 75.45,120.16 76.00,120.50 C76.55,120.84 77.00,121.94 77.00,122.95 C77.00,124.38 77.96,124.89 81.25,125.25 C83.59,125.50 85.93,125.32 86.45,124.85 C86.97,124.38 88.24,124.00 89.27,124.00 C90.72,124.00 98.31,120.31 100.89,118.35 C101.11,118.18 100.72,117.37 100.03,116.54 C98.68,114.91 99.28,112.00 100.97,112.00 C101.54,112.00 102.00,112.65 102.00,113.44 C102.00,115.33 103.43,116.16 105.41,115.40 C107.23,114.70 107.51,111.91 105.92,110.32 C105.21,109.61 105.16,108.59 105.77,107.37 C106.28,106.34 107.78,103.35 109.09,100.73 C110.41,98.10 111.63,96.38 111.80,96.91 C111.98,97.43 111.47,99.13 110.67,100.68 C109.43,103.09 109.42,103.69 110.61,104.79 C111.37,105.50 112.00,107.86 112.00,110.04 C112.00,113.33 112.34,114.00 114.00,114.00 C115.10,114.00 116.00,113.52 116.00,112.94 C116.00,112.36 116.45,112.16 117.00,112.50 C117.55,112.84 118.00,112.51 118.00,111.76 C118.00,109.47 120.17,107.90 121.64,109.12 C122.59,109.90 123.73,109.61 125.96,108.03 C127.63,106.84 129.00,106.32 129.00,106.87 C129.00,107.43 128.55,108.16 128.00,108.50 C127.45,108.84 127.00,109.53 127.00,110.03 C127.00,110.52 128.57,110.00 130.50,108.87 C132.43,107.73 134.00,107.09 134.00,107.44 C134.00,109.05 130.42,113.27 128.40,114.04 C127.16,114.51 125.39,116.47 124.48,118.40 C123.56,120.33 122.18,122.43 121.41,123.08 C119.94,124.30 119.50,130.77 120.77,132.50 C121.17,133.05 123.41,134.80 125.75,136.39 C128.09,137.97 130.00,139.61 130.00,140.03 C130.00,141.06 127.35,142.00 124.45,142.00 C122.69,142.00 122.22,142.41 122.66,143.57 C123.11,144.74 124.17,145.00 126.88,144.60 C128.87,144.30 133.88,143.78 138.00,143.44 C144.86,142.87 145.75,143.01 148.48,145.16 L 151.46 147.50 L 138.98 148.05 C129.98,148.44 134.37,148.65 154.75,148.80 L 183.00 149.00 L 134.25 148.84 C129.28,148.82 124.53,148.80 120.10,148.78 C122.25,148.59 122.63,148.21 122.36,147.50 C122.05,146.68 121.01,146.00 120.07,146.00 C118.24,146.00 115.49,143.30 112.61,138.67 C111.64,137.12 109.30,134.93 107.40,133.81 C104.19,131.91 104.07,131.67 105.72,130.40 C107.27,129.21 107.31,128.91 106.00,128.03 C103.90,126.63 103.61,126.70 100.71,129.39 C97.02,132.81 98.08,135.55 104.09,138.13 C110.07,140.71 111.27,142.08 110.43,145.40 C109.67,148.47 106.00,149.09 106.00,146.15 C106.00,143.81 102.49,140.58 100.97,141.52 C100.33,141.91 100.00,143.52 100.23,145.09 C100.46,146.67 100.16,148.15 99.57,148.40 C99.40,148.47 99.70,148.54 100.38,148.60 C92.38,148.50 87.87,148.39 88.75,148.28 C91.66,147.92 92.00,147.53 92.00,144.67 C92.00,142.91 92.90,139.79 94.00,137.74 C96.29,133.47 95.27,132.93 90.50,135.84 C88.85,136.84 84.83,137.98 81.57,138.36 C78.30,138.75 75.15,139.45 74.57,139.93 C73.07,141.16 68.74,141.59 67.25,140.66 C65.47,139.55 65.69,141.66 67.69,145.06 C69.30,147.78 69.79,147.94 77.44,148.26 C81.48,148.43 68.88,148.64 48.82,148.76 C51.00,148.59 51.65,148.26 51.44,147.71 C51.17,147.00 53.48,144.24 56.64,141.52 C62.40,136.54 62.63,134.59 57.12,137.44 C54.26,138.92 52.11,139.50 49.95,138.95 C51.01,139.11 51.99,138.82 52.50,138.00 ZM 85.61 91.75 C88.81,85.47 91.19,82.70 92.12,84.16 C92.68,85.04 92.97,84.29 92.98,81.95 C92.99,80.00 93.45,77.95 93.99,77.41 C94.53,76.87 96.51,72.16 98.39,66.96 C100.27,61.76 103.24,53.93 105.01,49.57 C106.81,45.10 108.26,39.65 108.33,37.07 C108.47,31.70 105.62,25.20 102.59,23.97 C101.44,23.51 101.06,23.10 101.75,23.06 C104.21,22.94 102.93,20.09 98.82,16.58 C96.52,14.61 94.16,13.01 93.57,13.02 C92.98,13.02 93.18,13.47 94.00,14.00 C95.21,14.78 95.07,14.97 93.25,14.98 C91.91,14.99 91.00,14.39 91.00,13.50 C91.00,12.91 90.79,12.40 90.49,12.16 C91.61,12.12 92.64,12.20 93.51,12.41 C96.60,13.19 104.00,19.69 104.00,21.64 C104.00,22.41 105.08,24.72 106.41,26.77 C109.67,31.82 110.26,35.48 108.88,42.00 C107.85,46.84 107.34,50.48 107.08,54.75 C107.03,55.44 106.50,55.89 105.90,55.75 C105.29,55.61 104.23,57.30 103.53,59.50 C102.83,61.70 101.38,65.53 100.30,68.00 C98.36,72.47 98.20,81.00 100.05,81.00 C101.16,81.00 99.02,87.12 97.32,88.82 C96.59,89.55 96.00,90.80 96.00,91.60 C96.00,92.41 95.39,93.30 94.65,93.58 C93.36,94.07 93.16,95.11 92.84,102.71 C92.72,105.61 92.52,105.81 90.67,104.82 C88.95,103.91 88.29,104.15 86.53,106.37 C85.37,107.81 84.22,108.98 83.96,108.95 C83.71,108.93 82.15,107.30 80.50,105.33 C75.14,98.93 69.32,93.00 68.40,93.00 C67.91,93.00 66.18,90.41 64.57,87.25 C62.96,84.09 60.96,80.69 60.12,79.69 C58.79,78.12 58.77,77.60 60.01,75.69 C61.12,73.97 61.38,69.66 61.21,55.62 C61.02,39.99 61.26,36.85 63.09,30.62 C65.26,23.23 68.86,18.63 71.63,19.69 C72.44,20.00 74.21,19.21 75.56,17.94 C78.38,15.29 83.57,13.13 88.06,12.41 C86.88,12.89 86.00,13.73 86.00,14.57 C86.00,15.32 85.03,16.45 83.85,17.08 C82.03,18.05 81.79,17.99 82.30,16.67 C82.74,15.51 82.45,15.26 81.20,15.72 C77.10,17.20 72.25,22.27 69.17,28.29 C65.95,34.60 65.83,35.26 65.35,49.60 C64.84,64.53 65.01,66.00 69.89,90.00 L 70.60 93.50 L 75.69 93.17 C78.62,92.98 81.06,93.29 81.45,93.92 C82.60,95.78 83.89,95.11 85.61,91.75 ZM 80.16 65.00 C76.11,64.05 75.03,63.05 73.44,58.78 C72.76,56.98 71.25,53.03 70.08,50.00 C68.91,46.97 68.19,43.49 68.49,42.25 C68.97,40.30 69.68,40.00 73.96,40.00 C76.67,40.00 79.16,40.45 79.50,41.00 C79.84,41.55 81.70,39.93 83.63,37.39 L 87.15 32.79 L 84.87 30.36 C82.90,28.27 82.01,28.03 78.30,28.58 C75.49,29.00 74.00,28.85 74.00,28.15 C74.00,25.34 81.33,24.37 84.25,26.79 C85.12,27.51 86.70,27.64 88.56,27.13 C93.80,25.72 101.00,28.59 101.00,32.10 C101.00,32.49 98.31,32.57 95.02,32.27 C88.46,31.67 87.19,32.65 88.38,37.38 C89.02,39.93 91.14,40.98 97.50,41.91 C100.96,42.42 101.54,42.88 101.82,45.28 C102.36,49.95 99.08,56.65 93.91,61.48 C88.87,66.20 87.12,66.65 80.16,65.00 ZM 80.75 62.93 C82.81,64.02 85.36,64.93 86.42,64.96 C88.92,65.01 92.00,62.19 92.00,59.85 C92.00,58.53 92.74,58.00 94.55,58.00 C96.58,58.00 97.49,57.13 99.03,53.75 C101.32,48.69 101.44,46.99 99.67,44.56 C98.59,43.08 97.96,42.95 96.24,43.87 C95.08,44.49 93.84,45.92 93.48,47.05 C92.51,50.12 90.63,48.00 88.99,41.97 C88.23,39.17 87.27,36.67 86.87,36.42 C86.46,36.17 84.91,37.56 83.42,39.52 C80.79,42.96 80.77,43.11 82.61,44.50 C83.65,45.29 85.49,45.95 86.69,45.97 C89.97,46.02 90.46,47.83 87.56,49.16 C84.34,50.62 84.30,51.79 87.46,52.58 C90.54,53.35 93.03,56.00 90.68,56.00 C89.82,56.00 88.84,55.55 88.50,55.00 C88.16,54.45 87.35,54.04 86.69,54.08 C85.83,54.14 85.82,54.29 86.64,54.63 C87.27,54.88 87.56,55.97 87.28,57.05 C86.86,58.65 85.89,59.00 81.88,59.00 C79.20,59.00 77.00,59.44 77.00,59.98 C77.00,60.51 78.69,61.84 80.75,62.93 ZM 69.89 129.10 C73.78,125.47 73.80,123.32 70.00,119.16 C68.35,117.35 67.00,115.55 67.00,115.16 C67.00,113.98 61.20,108.00 60.06,108.00 C57.99,108.00 59.05,113.57 61.95,117.93 C63.57,120.37 64.67,122.73 64.40,123.16 C64.13,123.60 64.39,124.87 64.99,125.98 C65.76,127.42 65.76,128.58 65.00,130.00 C63.35,133.09 66.18,132.57 69.89,129.10 ZM 14.60 148.93 C18.63,148.81 20.77,148.51 20.13,148.10 C19.10,147.45 19.03,146.79 19.85,145.37 C20.45,144.34 20.95,144.05 20.97,144.73 C20.99,145.43 22.85,144.65 25.33,142.91 C29.82,139.74 36.04,138.29 40.40,139.38 C43.60,140.19 48.00,144.23 48.00,146.36 C48.00,149.01 46.00,148.24 44.68,145.08 C43.68,142.72 43.12,142.35 41.71,143.14 C40.76,143.68 37.72,144.17 34.97,144.23 C31.81,144.30 29.51,144.90 28.73,145.86 C27.75,147.07 27.76,147.23 28.75,146.63 C29.44,146.22 30.00,146.32 30.00,146.86 C30.00,147.39 29.44,148.06 28.75,148.34 C28.26,148.54 30.65,148.73 34.51,148.84 ZM 62.42 96.39 C60.22,97.24 60.21,97.23 59.50,95.00 C59.15,93.90 58.55,93.00 58.16,93.00 C57.77,93.00 56.00,91.68 54.22,90.06 C51.02,87.13 50.08,85.00 52.00,85.00 C52.55,85.00 53.00,83.88 53.00,82.50 C53.00,80.53 53.51,80.00 55.39,80.00 C57.19,80.00 58.18,80.92 59.41,83.75 C60.31,85.81 61.72,88.77 62.53,90.33 C64.42,93.97 64.39,95.64 62.42,96.39 ZM 65.62 77.06 C64.72,74.96 63.89,69.00 63.59,62.50 C63.31,56.45 63.06,51.28 63.03,51.00 C63.00,50.72 62.58,51.11 62.11,51.85 C60.22,54.83 62.27,80.69 64.82,86.00 L 66.50 89.50 L 66.82 85.06 C66.99,82.61 66.46,79.03 65.62,77.06 ZM 108.66 80.75 C107.80,82.13 106.68,82.35 105.67,81.33 C104.57,80.23 104.92,67.17 106.07,66.46 C108.93,64.69 111.14,76.80 108.66,80.75 ZM 29.08 144.38 C30.02,143.55 32.93,143.00 36.33,143.00 C42.26,143.00 43.93,141.52 39.31,140.36 C35.47,139.40 27.93,141.66 25.00,144.65 L 22.50 147.21 L 25.00 146.48 C26.38,146.09 28.21,145.14 29.08,144.38 ZM 37.76 124.02 C40.25,126.21 42.63,128.00 43.05,128.00 C45.65,128.00 40.11,120.52 36.99,119.82 C36.21,119.64 34.79,118.60 33.84,117.50 C32.12,115.52 32.11,115.52 32.67,117.77 C32.99,119.02 35.28,121.84 37.76,124.02 ZM 119.31 141.51 C119.00,139.59 119.21,137.45 119.79,136.76 C120.53,135.87 120.46,134.98 119.57,133.76 C117.98,131.59 117.00,132.50 117.00,136.17 C117.00,137.73 116.55,139.00 116.00,139.00 C114.43,139.00 114.83,141.16 116.75,143.11 C119.35,145.75 119.94,145.38 119.31,141.51 ZM 113.00 131.11 C113.00,127.56 112.56,126.05 111.41,125.60 C108.83,124.61 107.86,125.96 109.49,128.29 C110.32,129.47 111.00,131.39 111.00,132.56 C111.00,134.45 111.75,136.00 112.67,136.00 C112.85,136.00 113.00,133.80 113.00,131.11 ZM 106.34 92.17 C104.17,97.52 102.10,97.93 103.03,92.83 C103.85,88.33 105.51,86.08 106.91,87.55 C107.46,88.12 107.24,89.95 106.34,92.17 ZM 88.25 132.97 C92.99,134.86 94.61,131.89 90.11,129.56 C86.25,127.56 86.00,127.59 86.00,130.03 C86.00,131.21 86.95,132.44 88.25,132.97 ZM 84.42 49.13 C84.71,48.66 84.05,47.45 82.95,46.46 C80.68,44.40 78.29,45.71 79.34,48.43 C79.98,50.10 83.52,50.59 84.42,49.13 ZM 71.10 46.06 C71.81,46.50 73.32,46.37 74.44,45.76 C75.66,45.11 76.01,44.50 75.30,44.27 C74.65,44.05 74.36,43.22 74.66,42.44 C75.48,40.29 73.70,40.70 71.62,43.13 C70.19,44.81 70.07,45.43 71.10,46.06 ZM 139.50 147.00 C139.84,146.45 139.30,145.97 138.31,145.93 C137.31,145.89 135.15,145.68 133.50,145.45 C131.85,145.22 129.82,145.34 129.00,145.71 C128.10,146.12 129.51,146.66 132.50,147.04 C135.25,147.40 137.81,147.76 138.19,147.84 C138.57,147.93 139.16,147.55 139.50,147.00 ZM 30.13 120.45 L 28.50 115.86 L 28.19 120.08 C27.99,122.71 28.35,124.60 29.14,125.08 C31.47,126.52 31.78,125.07 30.13,120.45 ZM 67.00 146.00 C66.41,144.90 65.51,144.00 65.00,144.00 C64.49,144.00 63.59,144.90 63.00,146.00 C62.04,147.80 62.24,148.00 65.00,148.00 C67.76,148.00 67.96,147.80 67.00,146.00 ZM 82.36 51.77 C81.70,50.70 75.00,50.80 75.00,51.87 C75.00,52.35 76.76,52.70 78.92,52.64 C81.07,52.58 82.62,52.19 82.36,51.77 ZM 93.71 86.27 C94.63,87.91 96.00,85.72 95.95,82.69 L 95.91 79.50 L 94.59 82.50 C93.87,84.15 93.47,85.84 93.71,86.27 ZM 95.21 30.37 C97.58,32.16 100.36,32.14 98.86,30.33 C98.25,29.60 96.80,29.01 95.63,29.03 C93.67,29.06 93.64,29.17 95.21,30.37 ZM 63.00 93.44 C63.00,92.65 62.55,92.00 62.00,92.00 C61.45,92.00 61.00,92.93 61.00,94.06 C61.00,95.19 61.45,95.84 62.00,95.50 C62.55,95.16 63.00,94.23 63.00,93.44 Z" fill="rgb(154,149,193)"/>
<path d="M 0.00 74.50 L 0.00 0.00 L 91.50 0.00 L 183.00 0.00 L 183.00 74.50 L 183.00 149.00 L 154.75 148.80 C134.37,148.65 129.98,148.44 138.98,148.05 L 151.46 147.50 L 148.48 145.16 C145.75,143.01 144.86,142.87 138.00,143.44 C133.88,143.78 128.87,144.30 126.88,144.60 C124.17,145.00 123.11,144.74 122.66,143.57 C122.22,142.41 122.69,142.00 124.45,142.00 C127.35,142.00 130.00,141.06 130.00,140.03 C130.00,139.61 128.09,137.97 125.75,136.39 C123.41,134.80 121.17,133.05 120.77,132.50 C119.50,130.77 119.94,124.30 121.41,123.08 C122.18,122.43 123.56,120.33 124.48,118.40 C125.39,116.47 127.16,114.51 128.40,114.04 C130.42,113.27 134.00,109.05 134.00,107.44 C134.00,107.09 132.43,107.73 130.50,108.87 C128.57,110.00 127.00,110.52 127.00,110.03 C127.00,109.53 127.45,108.84 128.00,108.50 C128.55,108.16 129.00,107.43 129.00,106.87 C129.00,106.32 127.63,106.84 125.96,108.03 C123.73,109.61 122.59,109.90 121.64,109.12 C120.17,107.90 118.00,109.47 118.00,111.76 C118.00,112.51 117.55,112.84 117.00,112.50 C116.45,112.16 116.00,112.36 116.00,112.94 C116.00,113.52 115.10,114.00 114.00,114.00 C112.34,114.00 112.00,113.33 112.00,110.04 C112.00,107.86 111.37,105.50 110.61,104.79 C109.42,103.69 109.43,103.09 110.67,100.68 C111.47,99.13 111.98,97.43 111.80,96.91 C111.63,96.38 110.41,98.10 109.09,100.73 C107.78,103.35 106.28,106.34 105.77,107.37 C105.16,108.59 105.21,109.61 105.92,110.32 C107.51,111.91 107.23,114.70 105.41,115.40 C103.43,116.16 102.00,115.33 102.00,113.44 C102.00,112.65 101.54,112.00 100.97,112.00 C99.28,112.00 98.68,114.91 100.03,116.54 C100.72,117.37 101.11,118.18 100.89,118.35 C98.31,120.31 90.72,124.00 89.27,124.00 C88.24,124.00 86.97,124.38 86.45,124.85 C85.93,125.32 83.59,125.50 81.25,125.25 C77.96,124.89 77.00,124.38 77.00,122.95 C77.00,121.94 76.55,120.84 76.00,120.50 C75.45,120.16 75.00,119.18 75.00,118.31 C75.00,117.45 72.41,114.14 69.25,110.97 C66.09,107.80 61.47,102.70 59.00,99.64 C56.53,96.59 53.60,93.79 52.50,93.43 C51.40,93.07 49.59,91.94 48.48,90.93 C47.38,89.92 45.95,89.41 45.31,89.81 C44.04,90.59 50.57,98.24 53.46,99.35 C54.38,99.70 54.88,100.39 54.57,100.89 C54.26,101.38 54.61,102.02 55.35,102.30 C57.18,103.01 57.22,108.99 55.42,111.75 C53.60,114.54 49.46,114.72 48.04,112.07 C47.47,111.01 46.81,108.65 46.57,106.82 C45.28,96.95 40.54,85.00 37.90,85.00 C36.68,85.00 36.69,85.07 39.21,90.62 C40.42,93.31 41.43,95.80 41.46,96.17 C41.48,96.53 41.84,97.17 42.25,97.58 C43.10,98.43 43.28,103.00 42.47,103.00 C41.36,103.00 35.46,95.55 33.85,92.10 C32.00,88.15 31.47,89.65 32.92,94.73 C33.43,96.50 33.54,97.91 33.17,97.86 C29.17,97.30 28.98,98.09 32.12,102.00 C33.89,104.20 35.12,106.21 34.86,106.47 C34.60,106.73 32.75,105.83 30.75,104.47 C28.74,103.11 26.87,102.00 26.58,102.00 C26.29,102.00 26.27,107.96 26.54,115.25 L 27.03 128.50 L 29.64 128.83 C33.71,129.34 34.04,127.96 31.37,121.50 C30.00,118.20 29.06,114.28 29.26,112.79 C29.52,110.94 29.14,109.94 28.07,109.65 C27.06,109.38 27.28,109.19 28.68,109.12 C29.88,109.05 31.53,109.68 32.36,110.50 C33.18,111.32 34.16,112.00 34.53,112.00 C35.22,112.00 41.00,117.90 41.00,118.61 C41.00,119.52 39.86,118.82 36.37,115.75 C33.94,113.62 32.52,112.93 32.25,113.76 C32.02,114.45 31.44,114.77 30.97,114.48 C29.56,113.61 30.77,117.95 32.99,121.71 C34.13,123.63 37.85,128.31 41.28,132.09 C48.12,139.66 50.96,140.62 57.12,137.44 C62.63,134.59 62.40,136.54 56.64,141.52 C53.48,144.24 51.17,147.00 51.44,147.71 C51.83,148.72 49.30,148.98 39.72,148.92 C33.00,148.88 28.06,148.62 28.75,148.34 C29.44,148.06 30.00,147.39 30.00,146.86 C30.00,146.32 29.44,146.22 28.75,146.63 C27.76,147.23 27.75,147.07 28.73,145.86 C29.51,144.90 31.81,144.30 34.97,144.23 C37.72,144.17 40.76,143.68 41.71,143.14 C43.12,142.35 43.68,142.72 44.68,145.08 C46.00,148.24 48.00,149.01 48.00,146.36 C48.00,144.23 43.60,140.19 40.40,139.38 C36.04,138.29 29.82,139.74 25.33,142.91 C22.85,144.65 20.99,145.43 20.97,144.73 C20.95,144.05 20.45,144.34 19.85,145.37 C19.03,146.79 19.10,147.45 20.13,148.10 C20.95,148.62 17.20,148.98 10.75,148.98 L 0.00 149.00 L 0.00 74.50 ZM 86.53 106.37 C88.29,104.15 88.95,103.91 90.67,104.82 C92.52,105.81 92.72,105.61 92.84,102.71 C93.16,95.11 93.36,94.07 94.65,93.58 C95.39,93.30 96.00,92.41 96.00,91.60 C96.00,90.80 96.59,89.55 97.32,88.82 C99.02,87.12 101.16,81.00 100.05,81.00 C98.20,81.00 98.36,72.47 100.30,68.00 C101.38,65.53 102.83,61.70 103.53,59.50 C104.23,57.30 105.29,55.61 105.90,55.75 C106.50,55.89 107.03,55.44 107.08,54.75 C107.34,50.48 107.85,46.84 108.88,42.00 C110.26,35.48 109.67,31.82 106.41,26.77 C105.08,24.72 104.00,22.41 104.00,21.64 C104.00,19.69 96.60,13.19 93.51,12.41 C88.85,11.24 79.68,14.07 75.56,17.94 C74.21,19.21 72.44,20.00 71.63,19.69 C68.86,18.63 65.26,23.23 63.09,30.62 C61.26,36.85 61.02,39.99 61.21,55.62 C61.38,69.66 61.12,73.97 60.01,75.69 C58.77,77.60 58.79,78.12 60.12,79.69 C60.96,80.69 62.96,84.09 64.57,87.25 C66.18,90.41 67.91,93.00 68.40,93.00 C69.32,93.00 75.14,98.93 80.50,105.33 C82.15,107.30 83.71,108.93 83.96,108.95 C84.22,108.98 85.37,107.81 86.53,106.37 ZM 62.42 96.39 C64.39,95.64 64.42,93.97 62.53,90.33 C61.72,88.77 60.31,85.81 59.41,83.75 C58.18,80.92 57.19,80.00 55.39,80.00 C53.51,80.00 53.00,80.53 53.00,82.50 C53.00,83.88 52.55,85.00 52.00,85.00 C50.08,85.00 51.02,87.13 54.22,90.06 C56.00,91.68 57.77,93.00 58.16,93.00 C58.55,93.00 59.15,93.90 59.50,95.00 C60.21,97.23 60.22,97.24 62.42,96.39 ZM 106.34 92.17 C107.24,89.95 107.46,88.12 106.91,87.55 C105.51,86.08 103.85,88.33 103.03,92.83 C102.10,97.93 104.17,97.52 106.34,92.17 ZM 108.66 80.75 C111.14,76.80 108.93,64.69 106.07,66.46 C104.92,67.17 104.57,80.23 105.67,81.33 C106.68,82.35 107.80,82.13 108.66,80.75 ZM 99.57 148.40 C100.16,148.15 100.46,146.67 100.23,145.09 C100.00,143.52 100.33,141.91 100.97,141.52 C102.49,140.58 106.00,143.81 106.00,146.15 C106.00,149.09 109.67,148.47 110.43,145.40 C111.27,142.08 110.07,140.71 104.09,138.13 C98.08,135.55 97.02,132.81 100.71,129.39 C103.61,126.70 103.90,126.63 106.00,128.03 C107.31,128.91 107.27,129.21 105.72,130.40 C104.07,131.67 104.19,131.91 107.40,133.81 C109.30,134.93 111.64,137.12 112.61,138.67 C115.49,143.30 118.24,146.00 120.07,146.00 C121.01,146.00 122.05,146.68 122.36,147.50 C122.85,148.79 121.19,148.99 110.72,148.92 C104.00,148.88 98.98,148.64 99.57,148.40 ZM 88.25 132.97 C86.95,132.44 86.00,131.21 86.00,130.03 C86.00,127.59 86.25,127.56 90.11,129.56 C94.61,131.89 92.99,134.86 88.25,132.97 ZM 37.76 124.02 C35.28,121.84 32.99,119.02 32.67,117.77 C32.11,115.52 32.12,115.52 33.84,117.50 C34.79,118.60 36.21,119.64 36.99,119.82 C40.11,120.52 45.65,128.00 43.05,128.00 C42.63,128.00 40.25,126.21 37.76,124.02 ZM 93.71 86.27 C93.47,85.84 93.87,84.15 94.59,82.50 L 95.91 79.50 L 95.95 82.69 C96.00,85.72 94.63,87.91 93.71,86.27 ZM 80.75 62.93 C78.69,61.84 77.00,60.51 77.00,59.98 C77.00,59.44 79.20,59.00 81.88,59.00 C85.89,59.00 86.86,58.65 87.28,57.05 C87.56,55.97 87.27,54.88 86.64,54.63 C85.82,54.29 85.83,54.14 86.69,54.08 C87.35,54.04 88.16,54.45 88.50,55.00 C88.84,55.55 89.82,56.00 90.68,56.00 C93.03,56.00 90.54,53.35 87.46,52.58 C84.30,51.79 84.34,50.62 87.56,49.16 C90.46,47.83 89.97,46.02 86.69,45.97 C85.49,45.95 83.65,45.29 82.61,44.50 C80.77,43.11 80.79,42.96 83.42,39.52 C84.91,37.56 86.46,36.17 86.87,36.42 C87.27,36.67 88.23,39.17 88.99,41.97 C90.63,48.00 92.51,50.12 93.48,47.05 C93.84,45.92 95.08,44.49 96.24,43.87 C97.96,42.95 98.59,43.08 99.67,44.56 C101.44,46.99 101.32,48.69 99.03,53.75 C97.49,57.13 96.58,58.00 94.55,58.00 C92.74,58.00 92.00,58.53 92.00,59.85 C92.00,62.19 88.92,65.01 86.42,64.96 C85.36,64.93 82.81,64.02 80.75,62.93 ZM 71.10 46.06 C70.07,45.43 70.19,44.81 71.62,43.13 C73.70,40.70 75.48,40.29 74.66,42.44 C74.36,43.22 74.65,44.05 75.30,44.27 C76.01,44.50 75.66,45.11 74.44,45.76 C73.32,46.37 71.81,46.50 71.10,46.06 ZM 95.21 30.37 C93.64,29.17 93.67,29.06 95.63,29.03 C96.80,29.01 98.25,29.60 98.86,30.33 C100.36,32.14 97.58,32.16 95.21,30.37 Z" fill="rgb(241,244,253)"/>
</g>
</svg>